<?xml version="1.0" encoding="UTF-8"?>
<svg id="Layer_2" data-name="Layer 2" xmlns="http://www.w3.org/2000/svg" viewBox="0 0 309.82 248.5">
  <defs>
    <style>
      .cls-1 {
        fill: #ffea6c;
      }

      .cls-1, .cls-2, .cls-3, .cls-4, .cls-5, .cls-6, .cls-7 {
        stroke-width: 0px;
      }

      .cls-2 {
        fill: #f4f471;
      }

      .cls-3 {
        fill: #275b45;
      }

      .cls-4 {
        fill: #7bd4ef;
      }

      .cls-5 {
        fill: #b5507e;
      }

      .cls-6 {
        fill: #ad4462;
      }

      .cls-7 {
        fill: #d35f00;
      }
    </style>
  </defs>
  <g id="Onomatopeia">
    <g>
      <g>
        <path class="cls-2" d="m12.91,56.81c-.91.12-1.91.11-3.02,0-1.11-.12-2.2-.54-3.27-1.25-1.07-.71-2.02-1.86-2.85-3.45-.83-1.59-1.43-3.79-1.79-6.6L.25,32.25c-.29-2.25-.33-4.15-.1-5.7.22-1.55.62-2.82,1.18-3.81.56-.99,1.23-1.76,2-2.31.77-.55,1.56-.95,2.36-1.2.81-.25,1.56-.41,2.26-.51,1.93-.25,3.5-.09,4.72.48,1.22.57,2.15,1.43,2.8,2.57.65,1.14,1.06,2.44,1.25,3.88.1.8.14,1.55.1,2.25-.04.7-.08,1.46-.14,2.3l-4.38.57-.23-1.8c-.53-4.11-1.76-6.03-3.69-5.78-1.04.14-1.77.69-2.2,1.66-.43.97-.49,2.65-.18,5.05l2.19,16.87c.3,2.32.78,3.87,1.44,4.65.66.78,1.56,1.09,2.72.94.8-.1,1.42-.53,1.86-1.28.44-.75.56-1.88.36-3.38l-.46-3.55,4.97-.65.45,3.46c.39,2.99.01,5.3-1.13,6.92-1.14,1.62-2.97,2.59-5.48,2.92Z"/>
        <path class="cls-2" d="m31.84,54.35c-.96.12-1.95.11-2.97-.05-1.02-.16-1.99-.62-2.93-1.39-.94-.77-1.77-2.01-2.5-3.72-.73-1.71-1.28-4.06-1.67-7.04l-.61-4.73c-.38-2.94-.43-5.3-.14-7.08.29-1.78.79-3.15,1.52-4.1.72-.95,1.56-1.61,2.5-2s1.89-.64,2.82-.76c.91-.12,1.86-.12,2.85,0,1,.12,1.96.53,2.88,1.25s1.76,1.91,2.49,3.58c.74,1.66,1.3,3.98,1.68,6.95l.61,4.73c.38,2.94.42,5.32.13,7.15-.3,1.83-.81,3.25-1.52,4.25-.72,1.01-1.53,1.72-2.45,2.14-.92.42-1.82.69-2.69.81Zm-.49-4.13c.99-.13,1.61-.77,1.86-1.91.24-1.14.18-3.13-.18-5.95l-.98-7.52c-.37-2.83-.82-4.78-1.35-5.84-.53-1.06-1.29-1.53-2.29-1.4-1.04.13-1.7.78-1.98,1.95-.28,1.17-.24,3.16.13,6l.98,7.52c.37,2.82.83,4.75,1.4,5.79.56,1.04,1.37,1.49,2.4,1.36Z"/>
        <path class="cls-2" d="m41.97,26.3l-2.52.33-.55-4.21,2.52-.33-.28-2.17c-.28-2.19-.2-3.89.25-5.1.45-1.21,1.15-2.08,2.1-2.61.95-.53,2.04-.88,3.26-1.04.54-.07,1.17-.09,1.9-.06.73.03,1.35.14,1.88.32l.51,3.9c-.63-.08-1.33-.07-2.09.03-.72.09-1.32.43-1.8,1-.48.57-.64,1.52-.47,2.83l.28,2.17,4.41-.57.55,4.21-4.4.57,3.37,25.97-5.54.72-3.37-25.97Z"/>
      </g>
      <g>
        <path class="cls-2" d="m66.35,79.81c-.71-.36-1.44-.85-2.18-1.48-.74-.63-1.33-1.46-1.76-2.49s-.56-2.33-.38-3.88c.17-1.56.81-3.44,1.91-5.64l5.21-10.42c.88-1.77,1.78-3.16,2.7-4.17.92-1.01,1.82-1.74,2.7-2.18.89-.44,1.74-.67,2.57-.7.82-.03,1.59.07,2.29.28.7.22,1.33.46,1.88.74,1.52.76,2.57,1.64,3.18,2.64.6,1,.86,2.08.77,3.22-.09,1.14-.42,2.28-.99,3.42-.32.63-.66,1.19-1.02,1.68-.37.48-.77,1.02-1.22,1.6l-3.45-1.72.71-1.41c1.61-3.23,1.66-5.22.15-5.98-.82-.41-1.62-.37-2.4.13-.78.49-1.65,1.68-2.59,3.56l-6.63,13.27c-.91,1.83-1.32,3.18-1.22,4.06.1.88.6,1.55,1.51,2,.63.32,1.29.31,1.97-.02.68-.33,1.32-1.08,1.91-2.27l1.39-2.79,3.91,1.95-1.36,2.72c-1.18,2.36-2.57,3.84-4.18,4.45-1.61.62-3.41.43-5.38-.56Z"/>
        <path class="cls-2" d="m81.24,87.24c-.76-.38-1.46-.87-2.12-1.48-.66-.61-1.14-1.42-1.44-2.43-.31-1.01-.3-2.32,0-3.91.31-1.59,1.04-3.56,2.21-5.9l1.86-3.72c1.15-2.31,2.27-4.04,3.34-5.19,1.08-1.15,2.11-1.89,3.09-2.22.98-.33,1.91-.41,2.78-.23.87.18,1.67.46,2.41.83.71.36,1.4.82,2.06,1.39.66.57,1.15,1.34,1.47,2.31.32.97.34,2.24.06,3.8-.28,1.56-1,3.51-2.16,5.84l-1.86,3.72c-1.15,2.31-2.28,4.05-3.39,5.23-1.1,1.18-2.16,1.96-3.17,2.33-1.01.38-1.95.5-2.82.36-.87-.14-1.65-.38-2.34-.73Zm1.65-3.22c.78.39,1.54.23,2.27-.48.73-.71,1.66-2.17,2.76-4.39l2.95-5.91c1.11-2.23,1.73-3.86,1.87-4.88s-.19-1.73-.97-2.12c-.82-.41-1.61-.26-2.38.45-.77.71-1.71,2.17-2.82,4.4l-2.95,5.91c-1.11,2.22-1.71,3.84-1.81,4.87-.1,1.03.26,1.75,1.08,2.15Z"/>
        <path class="cls-2" d="m102.22,71.89l-1.98-.99,1.65-3.31,1.98.99.85-1.71c.86-1.72,1.75-2.91,2.66-3.57.91-.65,1.85-.94,2.79-.87.94.08,1.9.36,2.86.84.42.21.89.51,1.4.88.51.38.91.76,1.2,1.15l-1.53,3.07c-.42-.37-.93-.7-1.53-1-.56-.28-1.16-.33-1.79-.15-.63.18-1.2.79-1.72,1.82l-.85,1.71,3.46,1.73-1.65,3.31-3.46-1.73-10.2,20.42-4.36-2.18,10.2-20.42Z"/>
      </g>
      <g>
        <path class="cls-6" d="m234.19,78.89c6.72-1.93,13.83-2.16,20.76-2.66,3.82-.27,7.71-.52,11.44-1.45,4.01-.99,7.82-2.66,11.59-4.33,1.84-.82,3.15-1.73,4.06-3.57.91-1.84,1.71-3.74,2.55-5.61.14-.3.31-.95.53-1.32-.05-.01-.1-.02-.13-.02-1.15-.13-2.3-.26-3.45-.39-2.24-.25-4.48-.5-6.71-.75-4.48-.5-8.95-1.01-13.43-1.51-1.07-.12-2.13-.27-3.2-.35-.9-.07-1.57.09-2.11.83-.91,1.24-1.14,2.92-1.71,4.33-1.38,3.42-3.82,6.67-7.36,8.04-3.33,1.28-7.63.67-10.47,3.05-.23.19-.47.28-.71.28-.46,1.84-1,3.66-1.64,5.45Z"/>
        <path class="cls-6" d="m202.65,153.27c.1.02.19.04.28.07.18-.35.54-.6,1.06-.54,8.53,1.03,16.98-1.01,25.03-3.71,3.85-1.29,7.81-2.7,11.06-5.21,3.44-2.65,6.43-5.98,9.53-9.01,3.04-2.98,5.98-5.91,8.31-9.49,2.12-3.27,4.17-6.46,7.08-9.1,5.35-4.86,12.36-7.7,19.58-7.87,4.37-.1,8.8.78,12.8,2.54,1.97.87,3.85,1.93,5.6,3.2.96.69,1.88,1.43,2.82,2.16-.42-.91-.9-1.8-1.44-2.65-1.22-1.89-2.79-3.51-4.37-5.1-1.62-1.63-3.19-3.26-4.5-5.16-1.32-1.9-2.55-3.53-4.63-4.64-4.19-2.22-8.82-3.91-13.42-5.04-4.45-1.09-9.13-1.54-13.69-.97-4.72.59-9.32,2.19-13.15,5.05-.18.13-.37.21-.55.23.03.43.04.85.05,1.25.12,3.61-.73,7.21-1.78,10.64-1.03,3.36-2.18,6.71-3.47,9.99-1.22,3.1-2.65,6.15-4.58,8.87-3.34,4.72-8.03,8.31-13.2,10.82-5.62,2.73-11.76,4.27-17.94,5.05,0,1.07-.61,1.99-1.46,2.75-1.26,1.12-2.27,2.33-3.27,3.68-.54.73-1.12,1.48-1.73,2.17Z"/>
        <path class="cls-6" d="m166.32,119.42c.11.84.7,1.56,1.18,2.24,1.22,1.78,2.68,3.42,4.48,4.63.84.56,1.81.99,2.11,2.04.3,1.06-.13,2.18-.08,3.26.08,1.78,1.24,4.55,3.23,4.94.27-.02.55,0,.83.11,1.25.44,1.8,1.87,1.9,3.09.03.31.04.63.04.94,1.09-1.59,2.19-3.17,3.32-4.73,1.61-2.24,3.53-4.56,6.19-5.57,1.23-.47,2.88-.86,3.66.54.7,1.25.04,2.96-.28,4.23-.18.7-.38,1.39-.59,2.07.59-.74,1.18-1.47,1.77-2.2,1.77-2.2,3.66-4.91,6.75-5.05,2.76-.12,4.73,2.1,4.35,4.83-.21,1.48-.87,2.81-1.54,4.13-.51,1.01-1.03,2-1.58,2.99,1.22-.68,2.68-1.12,4.06-.75.79.21,1.52.66,2.07,1.27,10.26-1.23,21.06-4.59,28.17-12.48,4.12-4.57,6.24-10.4,8.21-16.13,1.09-3.17,2.22-6.37,2.8-9.68.29-1.65.45-3.34.39-5.01-.04-1.17,0-3.32-1.02-4.13-.58-.46-1.4-.61-2.07-.87-.72-.28-1.4-.67-2.02-1.13-1.32-.99-2.47-2.13-3.91-2.95-2.81-1.58-6.14-2.1-9.3-1.57-1.11,1.68-2.36,3.26-3.81,4.62-1.42,1.33-3.07,2.2-4.81,3.04-1.71.82-3.14,1.99-4.69,3.06-1.49,1.03-3.02,1.85-4.78,2.29-.18.04-.34.05-.49.02-.51,0-1.01-.04-1.5-.15-.03.13-.08.27-.16.4-3.86,6.24-8.88,12.23-15.59,15.53-3.75,1.84-7.79,2.51-11.94,2.56-4.29.05-8.64-.21-12.84-1.12-.84-.18-1.68-.4-2.5-.66-.1.43-.06.94,0,1.33Z"/>
        <path class="cls-1" d="m168.74,167.5c.01.07.02.14.02.2.66.69,1.35,1.35,2.12,1.94,1.26.98,2.63,1.82,4.1,2.46,1.02.45,2.13.69,3.18,1.05,9.91-1.98,19.34-8.7,24.2-17.62-.66-.18-1.35-.23-2.03-.16-.97.67-2.06,1.16-3.3,1.33-1.06.15-1.99-1.26-1-2.01,1.02-.77,2.16-1.26,3.34-1.49,1.08-.82,1.97-1.93,2.78-3.02.75-1.01,1.49-2.04,2.33-2.98.44-.49.9-.93,1.39-1.36.34-.29.92-.66.91-1.16,0-.98-1.32-1.41-2.09-1.31-1.16.16-2.17.92-3.08,1.6-1.05.79-2.08,1.61-3.1,2.44-1.07,1.32-2.32,2.47-3.87,3.27-1.18.61-2.26-1.04-1.28-1.92,1.23-1.1,2.49-2.25,3.79-3.34.92-1.23,1.69-2.59,2.43-3.89.85-1.48,1.66-2.99,2.4-4.53.51-1.07,1.32-2.69.72-3.88-.6-1.18-2.26-.98-3.23-.45-1.31.73-2.21,2.03-3.13,3.17-2.39,2.98-4.78,5.95-7.17,8.92-.95,1.19-2.6.01-1.92-1.3,1.24-2.42,2.25-4.97,3.02-7.58.2-.68.38-1.36.55-2.05.08-.32.54-1.49.32-1.76.16.21-.88.46-1.12.57-.5.23-.97.52-1.41.85-1.8,1.38-3.08,3.29-4.36,5.12-1.66,2.39-3.32,4.78-4.98,7.17-.6.87-2.36.46-2.12-.73.33-1.62.67-3.47.51-5.14-.02-.22-.06-.46-.13-.67-.03-.1-.2-.31-.2-.41-.04,0-.09,0-.14,0-.45.17-1.17.93-1.42,1.16-2.28,2.05-3.7,4.87-4.62,7.76-1.04,3.26-1.54,6.68-2.1,10.04-.53,3.18-1.01,6.48-.32,9.67Z"/>
        <path class="cls-1" d="m114.76,109.84c.05,1.76.26,3.52.49,5.26.93,6.9,2.9,13.71,5.96,19.98.7,1.44,1.55,3,3.17,3.53,1.71.56,3.96.48,5.72.22,1.79-.27,3.26-1.02,4.77-1.99,1.36-.87,2.74-1.72,4.35-1.96.02-.04.05-.08.08-.12,1.57-2.16,3.14-4.32,4.71-6.49,1.53-2.11,3.26-4.17,4.55-6.43.17-.3.33-.62.46-.95.17-.62.34-1.25.52-1.87.17-1.19.06-2.42-.45-3.53-.81-1.76-2.68-3.15-4.68-3-.8.06-1.37-.4-1.39-1.22-.09-3.21-.83-6.4-2.16-9.31-1.25-2.76-3.05-5.83-5.75-7.39-1.34-.77-2.8-.91-4.13-.05-1.35.88-2.54,2.21-3.58,3.43-1.05,1.24-1.92,2.21-3.68,1.94-1.31-.2-2.5-.43-3.7.34-1.23.79-1.01,1.87-1.07,3.15-.08,1.61-.94,2.43-2.45,2.78-1.65.38-1.77,2.25-1.73,3.66Z"/>
        <path class="cls-1" d="m202.66,88.82c4.26-2.09,7.59-5.84,9.16-10.32,1.3-3.72,1.37-8.44-1.33-11.6-1.36-1.59-3.37-2.34-5.46-1.98-2.54.44-4.57,2.14-5.98,4.21-1.38,2.03-2.02,4.34-3.14,6.5-.96,1.87-2.62,3.49-4.88,3.16-2.66-.39-4.35-3.11-5.16-5.43-.72-2.05-.89-4.4.03-6.37-1.66-.72-3.09-1.94-4.08-3.49-.6-.93-1.23-2.16-.59-3.23.65-1.08,1.68-.75,2.68-1.01,1.16-.3,1.23-1.8,1.11-2.75-.17-1.4-.51-2.76-.59-4.18-.06-1.03-.03-2.07.09-3.09-2.77,2.74-6.14,4.9-9.8,6.25-2.68.98-5.45,1.55-8.3,1.67-1.54.06-3.07-.16-4.23-1.28-1.1-1.05-1.9-2.61-2.63-3.93-1.05-1.92-1.93-4.11-2.01-6.29-3.45,2.96-7.38,5.69-11.7,6.6.22.26.29.63.11,1.05-.87,1.96-1.22,4.09-1.54,6.2-.31,2.13-.54,4.27-.66,6.42-.26,4.37-.11,8.76.45,13.12,1,7.76,3.13,15.64,6.83,22.57,3.32,6.24,8.26,11.62,15.07,13.96,3.91,1.34,8.06,1.74,12.16,1.91,4.01.15,8.08.11,11.9-1.25,7.53-2.66,13-9.15,17.09-15.74-1.02-.61-1.92-1.47-2.61-2.45-1.64-2.34-2.15-5.2-2.59-7.97-.08-.51.15-1.04.62-1.27Zm-39.24,21.85c-2.45.17-4.9-.91-6.53-2.72-1.77-1.97-2.5-4.67-2.35-7.27-.29,0-.58,0-.87.02-1.49.05-1.33-2.27.16-2.32,2.88-.11,5.78.34,8.48,1.35,1.21.46,2.51.94,3.24,2.07.71,1.07,1.13,2.43,1.34,3.68.2,1.17.34,2.56-.28,3.64-.64,1.15-1.97,1.47-3.19,1.55Zm-10.51-35.03c-.32.88-1.36.97-1.97.38-.81-.77-1.63-1.49-2.5-2.18-.63-.5-1.54-1.3-2.39-.94-1.38.56-2.42-1.53-1.04-2.08,2.03-.82,3.9.28,5.51,1.65-.19-.52-.45-1-.7-1.38-.74-1.12-1.81-1.94-3.06-2.38-1.41-.5-.65-2.69.77-2.19,1.83.64,3.33,1.9,4.37,3.53.97,1.55,1.64,3.81,1.01,5.59Zm22.85.24c-1.82-1.19-4.07-1.33-6.19-1.12-2.12.21-4.34.75-5.43,2.75-.65,1.2-2.43.17-2.06-1.03.79-2.54,1.79-5.23,4.03-6.84,2.12-1.52,4.71-1.97,7.23-1.33,1.45.37.67,2.55-.77,2.19-1.85-.46-3.92,0-5.37,1.24-.49.42-.9.92-1.24,1.44,1.01-.37,2.1-.59,3.16-.69,2.76-.28,5.58-.07,7.96,1.47,1.25.82-.06,2.74-1.31,1.92Z"/>
        <path class="cls-7" d="m130.24,21.51c.73,1.53,2.15,2.49,3.58,3.3,1.76.99,3.62,1.81,5.53,2.47,1.81.63,3.66,1.1,5.55,1.43,1.25.21,1.5,1.99.15,2.3-1.68.39-3.13,1.37-4.53,2.34-1.28.89-2.55,1.83-3.68,2.9-2.13,2.01-3.8,4.71-3.07,7.73.66,2.74,2.99,4.92,5.62,5.77,3.24,1.06,6.84.35,9.86-1.08,3.56-1.7,6.5-4.4,9.34-7.08.8-.75,2.37.19,1.86,1.26-1.56,3.24.3,6.72,2.01,9.5.42.68.84,1.52,1.48,2.02.7.55,1.65.51,2.49.48,1.55-.05,3.1-.29,4.6-.65,6.08-1.45,11.52-5.22,14.99-10.42.71-1.07,2.58-.2,2.06,1.04-.96,2.27-1.45,4.69-1.37,7.16.08,2.33,1.27,4.9.34,7.17-.36.86-.95,1.65-1.8,2.09-.38.2-.8.3-1.22.34-.09,0-.37.05-.58.05.29.25.55.97.8,1.28.3.36.63.7,1.01,1,.83.67,1.77,1.09,2.8,1.35.69.17,1.03,1.2.58,1.75-1.58,1.93-1.15,4.57-.12,6.67.89,1.8,2.99,4.08,4.74,1.86.62-.78.98-1.73,1.34-2.65.5-1.27,1.03-2.52,1.7-3.71,1.27-2.28,3.05-4.32,5.39-5.54,4.26-2.21,9.08-.95,11.56,3.15,2.26,3.73,2.17,8.47.77,12.47-1.67,4.76-5.13,8.82-9.55,11.23.65,3.72,2,8.75,6.48,8.71,3.37-.87,5.77-3.65,8.84-5.14,1.68-.81,3.2-1.63,4.55-2.94,1.29-1.26,2.36-2.73,3.34-4.23,3.87-5.89,5.97-12.76,7.06-19.68,1.12-7.09,1.3-14.3,1.32-21.47.01-3.58-.22-7.15-2.38-10.15-1.84-2.55-4.44-4.41-7.1-6.01-2.95-1.78-6.32-3.04-8.66-5.66-1.25-1.4-2.37-2.89-3.73-4.2-1.35-1.3-2.83-2.46-4.35-3.56-5.63-4.05-11.87-7.2-18.44-9.42-13.09-4.44-27.41-5.16-40.88-2.07-3.37.77-6.69,1.78-9.91,3.04-3.13,1.23-6.4,2.7-8.66,5.29-1.94,2.22-3.02,5.68-1.69,8.48Z"/>
        <path class="cls-5" d="m156.87,100.82c-.12,2.07.41,4.18,1.87,5.72.8.84,1.86,1.44,2.98,1.71.72.17,2.53.41,2.94-.39.44-.87-.14-2.65-.44-3.49-.19-.53-.42-1.22-.85-1.6-.43-.37-1.14-.57-1.65-.77-1.57-.6-3.2-.99-4.85-1.17Z"/>
        <path class="cls-4" d="m268.35,115.61l-3.83,2.04-2.72,5.59-81.94,89,1.17,10.6-.81,17.1s70.63,22.09,114.92-4.68l-1.97-36.21-10.16-43.21-9.47-30.56-5.2-9.66Z"/>
        <path class="cls-4" d="m144.38,141c5.23,6.91,11.69,12.85,17.21,19.52.97,1.17,1.92,2.37,2.82,3.6.63.18,1.18.5,1.69.88-.08-2.06.14-4.13.46-6.17.49-3.19,1.01-6.42,1.78-9.56.71-2.92,1.78-5.8,3.52-8.27.81-1.15,1.77-2.23,2.86-3.12.02-.02.05-.04.07-.06-1.26-.94-2.18-2.36-2.68-3.87-.4-1.22-.51-2.53-.36-3.81.03-.26.18-.66.13-.92-.08-.37-.24-.4-.54-.59-.58-.36-1.14-.74-1.68-1.17-2.01-1.62-3.59-3.66-4.94-5.86-.68-1.11-1.05-2.91-.62-4.3-2.22-.89-4.32-2.07-6.22-3.56-.76-.6-1.48-1.23-2.17-1.9-.02.02-.04.04-.06.06-1.82,1.65-2.72,3.93-3.42,6.23-.16.54-.32,1.08-.47,1.62-.04.23-.09.47-.15.7-.1.39-.22.76-.37,1.13-.37,1.3-.76,2.6-1.25,3.87-1.95,5.09-4.81,9.87-5.57,15.35-.01.07-.03.13-.04.19Z"/>
        <path class="cls-4" d="m120.7,223.79c.38,1.28.84,2.53,1.31,3.78.45,1.21.9,2.42,2.01,3.16,2.14,1.43,5.29,1.48,7.76,1.22,2.78-.29,5.48-1.08,8.13-1.96,1.46-.49,2.96-.96,4.34-1.67,1.34-.69,2.47-1.67,3.54-2.73,1.78-1.77,3.64-3.7,4.68-6.02-1.87-.26-3.73-.72-5.55-1.43-3.3-1.3-6.33-3.4-8.41-6.3-2.56-3.56-3.96-7.94-5.44-12.03-1.72-4.74-3.27-9.54-4.64-14.39-5.38,9.02-7.61,19.6-8.49,30-.24,2.86-.04,5.61.78,8.37Z"/>
        <path class="cls-4" d="m123.39,140.66c.88,17.36,4.05,34.61,9.37,51.16,1.35,4.19,2.83,8.34,4.46,12.43,1.44,3.62,3.15,7.08,6.36,9.45,5.97,4.4,13.91,4.5,20.84,2.77,4.12-1.03,8.06-2.64,11.96-4.3,3.7-1.57,7.4-3.11,11.14-4.56,7.18-2.77,14.43-5.35,21.51-8.37,7-2.98,13.9-6.38,20.1-10.83,6.69-4.79,12.19-10.78,16.89-17.51,2.44-3.5,4.69-7.13,6.87-10.8,2.26-3.79,4.53-7.6,6.39-11.61,2.88-6.21,5.41-13.92,3.48-20.78-.33-1.16-.82-2.26-1.43-3.28-.56.84-1.11,1.7-1.68,2.55-2.31,3.52-5.24,6.44-8.23,9.37-3.07,3.01-6.03,6.26-9.39,8.96-3.13,2.52-6.82,4.08-10.58,5.39-8.43,2.94-17.34,5.32-26.33,4.54,0,.03-.02.05-.03.08-4.75,9.54-14.09,16.95-24.43,19.65.85,1.68.14,4.08-.78,5.66-1.35,2.3-3.64,3.93-5.98,5.14.38,1.99.65,4,.81,6.01.53,6.8-.14,13.61-2.02,20.17-.41,1.44-2.6.67-2.19-.77,3.25-11.34,2.7-23.77-1.71-34.73-1.53-3.82-3.6-7.28-5.96-10.54-.02-.02-.03-.04-.05-.07-3.88-5.34-8.56-10.14-13.04-15.02-3.89-4.24-7.64-8.63-10.67-13.53-1.28.36-2.38,1.15-3.52,1.86-1.54.97-3.15,1.67-4.96,1.94-2.28.34-4.97.44-7.17-.44Z"/>
        <path class="cls-4" d="m168.7,170.84c.6,1.12,1.16,2.26,1.66,3.42,1.27,2.95,2.28,6.02,3.02,9.15,1.77-.98,3.43-2.22,4.49-3.96.51-.84,1.02-2.03.82-3.03-.08-.42-.39-.69-.78-.88-.2-.02-.38-.09-.52-.2-.54-.17-1.13-.26-1.55-.4-2.44-.84-4.76-2.12-6.76-3.77-.13-.11-.26-.22-.39-.33Z"/>
        <path class="cls-3" d="m309.76,119.13c-.74-2.74-1.91-5.3-3.48-7.58-1.28-1.87-2.88-3.49-4.42-5.06-.32-.33-.66-.67-.98-.99-1.39-1.44-2.53-2.98-3.72-4.61l-.69-.93c-1.66-2.24-3.85-3.47-5.76-4.38-5.17-2.43-9.96-4.08-14.68-5.03-9.8-1.96-19.05-.44-26.13,4.28-.07-.19-.15-.39-.24-.57-.79-1.59-2.39-2.17-3.67-2.63-1.13-.4-2-1.14-2.93-1.92-.26-.22-.52-.44-.79-.66-1.24-.97-2.63-1.78-4.16-2.39-1.98-.8-4.15-1.2-6.34-1.19.26-.49.51-.97.75-1.46.3-.59.61-1.24.93-1.99,6.23-2.01,12.89-2.45,19.34-2.86,2.43-.16,4.94-.32,7.38-.57,4.46-.45,8.56-1.39,12.52-2.89,2.12-.8,4.16-1.69,6.24-2.6,1.64-.72,3.49-1.64,4.72-3.41.91-1.31,1.54-2.82,2.17-4.27.21-.51.42-1.01.64-1.49.17-.37.35-.75.52-1.12.36-.75.74-1.52,1.04-2.31.43-1.15.14-2.25-.76-2.85-.77-.52-1.79-.58-2.68-.64-.25-.02-.49-.03-.72-.06l-10.74-1.21c-1.55-.17-3.08-.35-4.63-.53-3.19-.37-6.37-.73-9.57-1.07-2.41-.25-4.12.44-5.25,2.11-.67,1-1.03,2.14-1.39,3.24-.18.54-.35,1.08-.56,1.61-.84,2.07-2.85,5.71-6.9,6.74-.96.25-1.97.42-2.95.58-1.58.26-3.19.51-4.71,1.13.42-2.28.75-4.69,1.01-7.3.34-3.39.53-7.09.63-11.62,0-.67.03-1.35.06-2.03.1-3.36.22-6.82-.71-10.04-2.01-7.1-8.88-10.79-14.4-13.76-.95-.51-1.81-.98-2.55-1.58-.77-.6-1.41-1.39-2.07-2.19-1.37-1.67-2.71-3.09-4.13-4.32-2.59-2.29-5.66-4.44-9.39-6.6-6.4-3.69-13.33-6.42-20.61-8.1-14.78-3.4-29.94-2.54-43.86,2.49-6.22,2.25-14.46,6.19-14.29,14.4.03,1.85.52,3.48,1.45,4.86,1.17,1.72,2.96,2.84,4.4,3.62,2.25,1.23,4.66,2.23,7.17,2.99-.55.37-1.09.73-1.54,1.06-2.03,1.43-3.46,2.67-4.65,4.01-2.69,3.05-3.56,6.72-2.39,10.05,1.15,3.3,4.02,5.99,7.49,7,1.38.4,2.8.6,4.21.57-.83,2.17-1.16,4.5-1.48,6.76-.36,2.56-.58,5.17-.67,7.77-.17,5.18.2,10.37,1.11,15.45,1.63,9.1,4.42,16.77,8.29,22.81.99,1.54,2.06,2.97,3.17,4.27-.9.89-1.66,1.94-2.32,3.2-.14-.23-.29-.44-.45-.64-1.21-1.58-2.95-2.6-4.92-2.9-.3-3.66-1.28-7.1-2.91-10.24-2.51-4.85-5.29-7.56-8.47-8.28-4.16-.94-7.22,2.68-9.25,5.06-.08.09-.15.19-.23.3-.14.19-.35.47-.48.51-.12.04-.45-.03-.64-.07l-.21-.04c-.83-.16-1.55-.2-2.29-.12-1.63.18-3.17,1.01-4.12,2.2-.5.64-.84,1.4-.95,2.19-.05.3-.02.64.01,1,.02.39.06.86-.03,1.05-.09.09-.52.2-.76.26-.33.09-.67.18-.93.33-.69.42-1.27,1.01-1.69,1.73-1.02,1.78-.87,3.84-.74,5.75.14,1.98.38,3.98.69,5.94.62,3.82,1.58,7.66,2.85,11.39.68,1.95,1.4,3.82,2.16,5.54l.08.17c.68,1.56,1.39,3.16,2.47,4.53.1.13.21.25.31.37-.05.17-.07.37-.07.58.1,2.24.25,4.5.42,6.72.95,11.95,3,23.93,6.09,35.62-3.54,5.41-6.12,11.68-7.68,18.61-.63,2.81-1.17,5.86-1.67,9.43-.43,3.11-.88,6.33-.62,9.55.25,3.21,1.41,6.31,2.44,9.05.48,1.26,1.07,2.56,2.18,3.55.93.82,2.15,1.44,3.63,1.83,6.13,1.58,12.62-.51,18.21-2.61,2.6-.98,4.8-2.54,7.33-5.25,1.67-1.79,3.38-3.74,4.37-6.15,4.54.15,9.47-.73,15.06-2.7,2.76-.98,5.49-2.12,8.21-3.28.98,8.11.84,16.34-.41,24.48-.09.56.09,1.07.51,1.4.26.21.59.33.93.35.27.02.53-.02.8-.12.19-.08.37-.18.51-.31.28-.25.48-.6.53-1.01,1.32-8.6,1.41-17.39.28-26.12.33-.15.66-.28.99-.42,3.73-1.53,7.43-2.95,11.22-4.38l1.63-.62c6.83-2.57,13.89-5.23,20.6-8.41,8.14-3.87,14.71-8.03,20.07-12.74,5.67-4.96,10.71-11.23,16.37-20.32l.51-.81c4.54-7.3,9.24-14.84,11.64-23.15,2.34-8.11,1.88-14.75-1.34-19.75,1.24-1.67,2.39-2.98,3.62-4.08.2-.18.4-.36.6-.53,1.31,2.1,2.42,4.35,3.5,6.52.28.56.56,1.13.84,1.7,1.9,3.75,3.06,7.88,4.2,11.86l.11.41c4.14,14.53,8.83,31.01,11.92,47.43,3,15.9,4.74,32.18,5.16,48.38.02.82.55,1.37,1.19,1.57.2.07.42.11.63.1.9-.03,1.51-.66,1.49-1.55-.24-9.34-.91-18.72-1.98-27.9-1.75-15.1-4.88-31-9.56-48.59-2.58-9.69-4.65-17.09-6.72-23.99-1.09-3.67-2.5-7.2-4.29-10.8-1.15-2.31-2.38-4.76-3.86-7.11,4.77-3.16,10.44-4.77,16.01-4.56,3.83.15,7.65,1.1,11.08,2.77,2.29,1.1,4.33,2.67,6.3,4.19,1.18.9,2.39,1.83,3.66,2.67.57.37,1.34.35,1.93-.08.55-.39.78-1.02.61-1.66Zm-6.51-5.38c-1.76-1.26-3.67-2.36-5.69-3.25-4.08-1.79-8.58-2.68-13.02-2.58-7.34.17-14.42,3.01-19.89,7.99-2.89,2.62-4.9,5.71-7.03,8.99l-.13.21c-2.22,3.4-4.93,6.16-8.24,9.4-.81.79-1.61,1.61-2.41,2.42-2.24,2.27-4.55,4.61-7.07,6.55-3.12,2.41-6.95,3.81-10.91,5.14-6.82,2.28-15.8,4.76-24.79,3.69.25-.33.49-.64.7-.93,1.15-1.56,2.1-2.64,3.2-3.61.94-.83,1.47-1.74,1.59-2.67,6.65-.88,12.61-2.57,17.68-5.04,5.6-2.72,10.23-6.51,13.4-10.98,1.7-2.41,3.18-5.27,4.63-8.98,1.25-3.16,2.42-6.54,3.49-10.01.9-2.96,1.92-6.86,1.79-10.81-.01-.29-.02-.57-.03-.88.11-.05.22-.11.33-.19,3.51-2.62,7.98-4.34,12.92-4.96,4.22-.52,8.77-.2,13.51.96,4.75,1.16,9.35,2.89,13.31,4.99,1.99,1.06,3.15,2.59,4.46,4.49,1.35,1.94,2.99,3.64,4.56,5.22,1.74,1.76,3.16,3.24,4.31,5.02.12.2.25.4.37.61l-1.04-.78Zm-50.8,46.1c-1.79,3.02-4.2,6.98-6.85,10.76-5.05,7.24-10.54,12.93-16.77,17.4-5.3,3.8-11.66,7.23-20.01,10.78-4.9,2.08-9.97,3.99-14.87,5.84-2.21.83-4.42,1.66-6.61,2.51-1.48.57-2.95,1.16-4.4,1.75-2.32.95-4.59,1.9-6.75,2.82-3.94,1.67-7.82,3.26-11.9,4.27-4.68,1.17-13.56,2.38-20.42-2.69-2.96-2.18-4.61-5.27-6.19-9.22-1.61-4.05-3.11-8.21-4.45-12.4-5.25-16.34-8.38-33.26-9.31-50.31,1.81.55,4.06.62,6.71.23,1.74-.27,3.43-.92,5.15-2.02l.49-.31c.86-.55,1.67-1.07,2.56-1.38,3.16,5.04,7.09,9.53,10.52,13.28.8.86,1.59,1.72,2.39,2.58,3.66,3.94,7.45,8.02,10.67,12.46,2.58,3.56,4.51,6.97,5.91,10.44,4.35,10.83,4.95,23.04,1.69,34.41-.3,1.05.4,1.86,1.2,2.09.4.12.79.08,1.14-.07.28-.13.64-.4.81-.99,1.89-6.59,2.57-13.43,2.03-20.34-.15-1.89-.39-3.81-.75-5.71,2.78-1.48,4.69-3.16,5.86-5.16.87-1.49,1.6-3.75,1.02-5.57,10.21-2.84,19.38-10.25,24.1-19.54,9.34.71,18.48-1.91,26.19-4.6,2.38-.82,5-1.83,7.51-3.29,0,0,0,0,.01,0,1.11-.63,2.18-1.35,3.22-2.18,2.47-1.98,4.75-4.29,6.97-6.52.82-.83,1.63-1.65,2.45-2.47,3.33-3.26,6.06-6.02,8.3-9.45l.63-.95c.2-.31.4-.61.61-.93.42.81.76,1.64.99,2.47,1.53,5.43.41,12.12-3.45,20.44-1.82,3.91-4.07,7.71-6.24,11.37l-.12.2Zm-112.33,69.55l-.37.12c-2.5.84-5.2,1.64-8.02,1.94-2.26.24-5.37.24-7.43-1.14-.98-.66-1.39-1.75-1.82-2.93-.5-1.33-.93-2.52-1.3-3.75-.76-2.57-1-5.25-.75-8.19.99-11.75,3.57-21.19,7.85-28.79,1.28,4.47,2.74,8.94,4.32,13.31l.53,1.47c1.32,3.68,2.68,7.48,4.97,10.68,2.02,2.81,5,5.05,8.64,6.48,1.59.62,3.27,1.07,5,1.36-1.02,1.93-2.61,3.6-4.3,5.28-.86.86-2.02,1.92-3.41,2.65-1.23.63-2.59,1.08-3.9,1.51Zm-24.37-114.37c-.21-1.55-.44-3.39-.49-5.21-.05-1.96.36-2.94,1.35-3.16,1.82-.42,2.75-1.48,2.84-3.24.01-.22.02-.42.01-.62.01-1.06.06-1.64.84-2.13.64-.42,1.29-.49,1.99-.45.37.03.75.08,1.17.15l.19.02c2.09.31,3.12-.91,4.13-2.11,1-1.18,2.16-2.49,3.47-3.34,1.36-.88,2.73-.46,3.62.06,2.09,1.21,3.9,3.55,5.55,7.17,1.3,2.85,2.03,6,2.11,9.12.02.53.21.97.55,1.28.34.31.84.46,1.37.42,1.88-.15,3.53,1.25,4.19,2.7.44.96.59,2.09.42,3.2l-.5,1.82c-.13.32-.28.61-.44.89-.91,1.59-2.05,3.1-3.16,4.56-.46.61-.92,1.22-1.36,1.82l-4.67,6.45c-1.57.29-2.9,1.08-4.34,2-1.3.83-2.75,1.64-4.57,1.91-1.26.19-3.65.41-5.49-.2-1.41-.46-2.19-1.88-2.88-3.27-1.49-3.05-2.73-6.25-3.72-9.57-.98-3.31-1.71-6.74-2.19-10.26Zm23.8-65.75c-2.64-.85-4.71-2.99-5.29-5.41-.73-3.03,1.18-5.62,2.92-7.26,1.21-1.14,2.58-2.12,3.63-2.85,1.28-.89,2.73-1.9,4.37-2.28.8-.18,1.3-.8,1.28-1.59-.02-.82-.65-1.52-1.47-1.67-1.85-.31-3.7-.79-5.47-1.4-1.97-.69-3.81-1.5-5.46-2.43-1.36-.77-2.71-1.67-3.38-3.08-1.29-2.7-.06-6.01,1.63-7.94,2.23-2.57,5.54-4.01,8.46-5.17,3.12-1.22,6.44-2.23,9.84-3.02,13.48-3.09,27.53-2.38,40.61,2.05,6.65,2.26,12.81,5.4,18.31,9.36,1.76,1.26,3.12,2.38,4.3,3.51.88.84,1.67,1.78,2.45,2.7.41.49.83.98,1.26,1.47,1.74,1.94,4.04,3.17,6.25,4.35.85.44,1.71.91,2.53,1.4,2.24,1.35,5.05,3.24,6.95,5.88,2.14,2.96,2.31,6.49,2.3,9.87-.03,7.99-.26,14.68-1.32,21.39-1.23,7.83-3.52,14.21-6.98,19.49-.8,1.24-1.91,2.83-3.26,4.15-1.34,1.31-2.92,2.12-4.43,2.85-1.29.62-2.46,1.46-3.59,2.28-1.66,1.19-3.22,2.31-5.1,2.81-3.85,0-5.17-4.18-5.87-7.97,4.37-2.48,7.81-6.6,9.47-11.32,1.61-4.59,1.3-9.4-.81-12.89-2.58-4.26-7.71-5.67-12.22-3.33-2.2,1.15-4.13,3.13-5.58,5.74-.74,1.33-1.31,2.71-1.75,3.84-.35.86-.69,1.75-1.24,2.45-.43.54-.87.77-1.34.73-.98-.11-2.02-1.36-2.57-2.49-.56-1.13-1.68-4.02.05-6.14.32-.38.41-.94.23-1.47-.18-.55-.58-.94-1.06-1.06-1.02-.26-1.88-.67-2.61-1.26-.33-.26-.63-.57-.93-.93-.08-.09-.19-.3-.28-.47-.02-.03-.03-.05-.04-.08.44-.06.82-.18,1.18-.36.87-.46,1.59-1.29,2.01-2.34.67-1.64.35-3.36.04-5.02-.16-.83-.3-1.61-.33-2.36-.08-2.33.37-4.67,1.33-6.94.32-.76.02-1.58-.73-1.98-.68-.36-1.66-.32-2.18.48-3.39,5.07-8.75,8.8-14.7,10.22-1.6.38-3.12.6-4.54.64-.78.03-1.58.05-2.13-.38-.45-.35-.79-.93-1.13-1.5l-.23-.39c-1.72-2.8-3.44-6.04-1.99-9.04.31-.66.11-1.41-.52-1.87-.58-.42-1.49-.55-2.12.04-2.49,2.35-5.6,5.26-9.22,6.99-1.93.92-5.72,2.28-9.49,1.06Zm98.94,41.22c.91.52,1.7,1.16,2.53,1.85.44.36.88.72,1.34,1.07.67.5,1.39.9,2.13,1.19.21.08.43.15.66.22.46.15.96.31,1.29.58.74.59.79,2.36.81,3.42l.02.34c.05,1.52-.07,3.12-.38,4.91-.55,3.11-1.6,6.17-2.62,9.13l-.17.48c-2.12,6.16-4.19,11.62-8.1,15.96-5.98,6.64-15.27,10.77-27.61,12.29-.59-.58-1.33-1.01-2.13-1.22-.29-.08-.57-.13-.86-.15-.78-.05-1.54.09-2.2.32.31-.57.6-1.14.89-1.72.67-1.34,1.37-2.71,1.59-4.29.21-1.47-.21-2.89-1.13-3.91-.93-1.02-2.24-1.54-3.72-1.48-3.08.14-5,2.56-6.69,4.69l-.67.84c.03-.11.05-.21.08-.33.35-1.23.78-2.76.09-4-.73-1.31-2.16-1.57-4.27-.77-2.75,1.04-4.71,3.37-6.41,5.73-.85,1.19-1.69,2.38-2.52,3.59-.21-1.26-.86-2.6-2.17-3.06-.31-.11-.62-.16-.96-.14-1.68-.38-2.71-2.87-2.78-4.47-.01-.39.03-.79.09-1.22.09-.69.19-1.42-.03-2.15-.29-1.06-1.14-1.58-1.87-2.03-.15-.09-.29-.19-.44-.28-1.57-1.05-2.98-2.53-4.35-4.51l-.22-.31c-.4-.55-.79-1.12-.87-1.72-.03-.19-.05-.4-.06-.62.66.18,1.32.36,1.97.5,3.78.81,8.01,1.19,12.95,1.12,4.71-.05,8.69-.91,12.15-2.61,5.86-2.89,11.03-8.03,15.78-15.71.02-.04.04-.07.06-.1.39.07.77.09,1.11.08.21.03.45.03.68-.03,1.62-.4,3.19-1.15,4.95-2.37.38-.26.77-.54,1.15-.81,1.14-.83,2.23-1.6,3.48-2.2,1.66-.8,3.41-1.7,4.93-3.13,1.33-1.25,2.56-2.74,3.76-4.53,3.05-.47,6.16.08,8.77,1.55Zm-36.72,59.4c-.77,1.02-1.61,2.07-2.6,2.85-1.24.26-2.39.78-3.42,1.56-.58.43-.78,1.12-.5,1.79.31.74,1.09,1.21,1.86,1.09,1.2-.17,2.31-.61,3.4-1.34.38-.03.74-.03,1.1.03-4.82,8.4-13.72,14.79-23.42,16.77-.35-.12-.71-.23-1.07-.34-.66-.19-1.33-.39-1.94-.66-1.37-.61-2.72-1.42-3.99-2.4-.64-.49-1.26-1.05-1.95-1.77,0-.03,0-.06-.01-.09-.66-3.05-.23-6.23.32-9.49l.2-1.16c.48-2.93.98-5.96,1.88-8.8,1.04-3.26,2.55-5.81,4.48-7.55l.2-.19c.19-.17.52-.49.79-.69.04.13.07.3.08.5.15,1.57-.17,3.32-.5,4.99-.15.7.19,1.35.88,1.63.66.28,1.62.2,2.13-.52l5.15-7.42c1.19-1.71,2.43-3.5,4.08-4.76.4-.31.84-.58,1.32-.8.05-.03.14-.06.25-.09.03,0,.05-.02.08-.02-.04.16-.09.29-.12.39-.05.15-.1.28-.11.36-.16.68-.35,1.36-.54,2.03-.77,2.61-1.77,5.13-2.99,7.49-.48.93-.09,1.84.56,2.25.72.46,1.62.3,2.19-.41l7.17-8.92.39-.49c.77-.97,1.57-1.99,2.6-2.57.49-.26,1.3-.47,1.9-.28.3.09.52.26.65.53.47.94-.22,2.39-.68,3.36l-.05.09c-.65,1.37-1.43,2.83-2.38,4.5l-.12.21c-.69,1.21-1.4,2.46-2.25,3.59-1.06.89-2.1,1.82-3.11,2.73l-.65.58c-.63.57-.72,1.47-.23,2.18.48.69,1.33.92,2.07.54,1.45-.74,2.76-1.84,4-3.36,1.06-.87,2.06-1.66,3.04-2.4.85-.63,1.82-1.37,2.85-1.5.37-.04.95.07,1.3.36.16.14.24.28.23.46,0,.18-.33.44-.55.61l-.2.16c-.53.47-1,.93-1.44,1.4-.74.83-1.4,1.72-2.04,2.58l-.32.43Zm-26.09,25.5c.23.08.51.14.8.21.22.04.47.1.69.17.18.11.38.19.59.23.35.18.43.37.45.49.14.7-.14,1.68-.76,2.69-.79,1.29-2.02,2.42-3.75,3.45-.74-2.95-1.7-5.84-2.89-8.58-.21-.5-.44-.99-.68-1.49,1.69,1.19,3.59,2.15,5.54,2.83Zm-32.23-41.58c-.42,1.12-.8,2.24-1.12,3.41-.21-.33-.43-.65-.63-.99l1.75-2.42Zm1.45-74.22c.33-2.23.67-4.22,1.5-6.07.14-.31.18-.61.13-.9,3.33-.83,6.73-2.75,10.6-5.97.22,1.69.89,3.51,1.99,5.54l.19.35c.69,1.26,1.46,2.69,2.53,3.71,1.43,1.37,3.3,1.46,4.6,1.4,2.84-.11,5.69-.69,8.44-1.69,3.3-1.22,6.4-3.1,9.04-5.48-.03.63-.03,1.26,0,1.89.05.89.21,1.76.35,2.6.09.53.19,1.07.26,1.61.06.46.17,1.99-.73,2.22-.25.06-.52.08-.8.1-.71.06-1.61.14-2.2,1.12-.87,1.45.17,3.06.6,3.75.95,1.49,2.28,2.68,3.86,3.46-.7,1.82-.65,4.04.14,6.3.42,1.22,2.09,5.25,5.55,5.76,2.15.3,4.11-.93,5.39-3.42.44-.85.81-1.72,1.16-2.58.58-1.37,1.12-2.67,1.94-3.87,1.07-1.55,2.91-3.52,5.66-4,1.91-.33,3.73.33,5,1.81,2.69,3.13,2.4,7.79,1.24,11.11-1.52,4.36-4.77,8.01-8.91,10.05-.65.32-1.01,1.04-.89,1.79.5,3.08,1.03,5.82,2.68,8.17.64.91,1.44,1.71,2.34,2.32-5.05,8.01-10.48,12.96-16.58,15.12-3.88,1.38-8.09,1.35-11.71,1.22-3.64-.14-7.92-.47-12.02-1.88-5.99-2.06-11.1-6.81-14.8-13.74-3.39-6.37-5.67-13.91-6.77-22.4-.55-4.26-.7-8.64-.44-13.03.12-2.14.34-4.29.65-6.37Zm7.33,60.29c.16-.54.3-1.07.46-1.61.63-2.07,1.43-4.18,3.02-5.75.6.56,1.23,1.1,1.86,1.61,1.76,1.38,3.76,2.56,5.94,3.46-.31,1.55.16,3.26.78,4.27,1.54,2.53,3.2,4.49,5.05,5.99.58.47,1.19.87,1.72,1.2l.14.09c.06.02.13.07.18.18.01.07-.04.29-.07.41-.03.13-.06.25-.06.35-.16,1.4-.03,2.79.38,4.02.49,1.48,1.33,2.78,2.38,3.72-.92.82-1.78,1.78-2.56,2.89-1.58,2.24-2.76,5-3.59,8.43-.78,3.16-1.29,6.35-1.79,9.61-.23,1.47-.48,3.36-.48,5.33-.29-.16-.58-.29-.88-.39-.86-1.17-1.78-2.35-2.74-3.5-2.39-2.88-4.99-5.67-7.5-8.37-3.26-3.5-6.63-7.11-9.55-10.95h0c.52-3.76,2.08-7.28,3.6-10.68.66-1.48,1.34-3.03,1.94-4.57.51-1.33.9-2.66,1.24-3.86.17-.41.29-.81.39-1.19.07-.24.11-.5.15-.69Zm90.69-48.37c1.44-.21,2.93-.43,4.27-.94,3.27-1.26,5.99-4.21,7.64-8.31.2-.5.37-1.04.52-1.55.29-.95.59-1.92,1.13-2.67.39-.53.82-.69,1.63-.64h.05c.72.06,1.43.15,2.15.24.35.04.69.09,1.04.12l13.43,1.51,9.64,1.09c-.04.1-.06.19-.1.29-.06.16-.11.31-.16.41-.27.6-.54,1.2-.8,1.8-.55,1.26-1.12,2.56-1.74,3.8-.88,1.77-2.11,2.59-3.82,3.34-3.48,1.55-7.41,3.29-11.51,4.31-3.52.86-7.25,1.13-10.85,1.39l-.51.03c-.95.07-1.91.14-2.88.2-5.66.37-11.5.76-17.08,2.23.47-1.38.89-2.81,1.27-4.28.22-.06.44-.18.63-.34,1.63-1.37,3.79-1.69,6.06-2.02Z"/>
        <path class="cls-3" d="m152.92,75.65c-.32.88-1.36.97-1.97.38-.81-.77-1.63-1.49-2.5-2.18-.63-.5-1.54-1.3-2.39-.94-1.38.56-2.42-1.53-1.04-2.08,2.03-.82,3.9.28,5.51,1.65-.19-.52-.45-1-.7-1.38-.74-1.12-1.81-1.94-3.06-2.38-1.41-.5-.65-2.69.77-2.19,1.83.64,3.33,1.9,4.37,3.53.97,1.55,1.64,3.81,1.01,5.59Z"/>
        <path class="cls-3" d="m175.77,75.89c-1.82-1.19-4.07-1.33-6.19-1.12-2.12.21-4.34.75-5.43,2.75-.65,1.2-2.43.17-2.06-1.03.79-2.54,1.79-5.23,4.03-6.84,2.12-1.52,4.71-1.97,7.23-1.33,1.45.37.67,2.55-.77,2.19-1.85-.46-3.92,0-5.37,1.24-.49.42-.9.92-1.24,1.44,1.01-.37,2.1-.59,3.16-.69,2.76-.28,5.58-.07,7.96,1.47,1.25.82-.06,2.74-1.31,1.92Z"/>
        <path class="cls-3" d="m166.9,105.49c-.21-1.26-.63-2.61-1.33-3.68-.73-1.13-2.03-1.61-3.24-2.06-2.7-1.01-5.61-1.46-8.49-1.35-1.48.05-1.65,2.37-.16,2.32.29-.01.58-.01.87-.01-.16,2.61.57,5.31,2.35,7.27,1.63,1.81,4.08,2.89,6.53,2.72,1.23-.08,2.55-.4,3.2-1.55.61-1.08.47-2.47.27-3.64Zm-2.24,2.37c-.4.8-2.21.56-2.94.39-1.13-.27-2.19-.87-2.98-1.71-1.46-1.54-1.99-3.65-1.87-5.72,1.65.19,3.27.57,4.85,1.17.51.2,1.22.4,1.65.77.43.38.67,1.07.85,1.6.3.85.88,2.62.44,3.49Z"/>
      </g>
    </g>
  </g>
</svg>